<svg id="Wordmark" xmlns="http://www.w3.org/2000/svg" viewBox="0 0 444.34 79.86"><defs><style>.cls-1{fill:#e52127;}</style></defs><title>synovus-logo</title><path class="cls-1" d="M457.5,132.53c13.92,0,23.42-7.43,23.42-19.85,0-11.66-9.31-15.43-18.72-18.15-10.72-3.1-15.43-4.61-15.43-11.57,0-6,4.33-9.59,11.95-9.59S471,76.85,473.12,84.56h4V71.39A44.89,44.89,0,0,0,459,67.63c-13.26,0-22.2,7.15-22.2,19.19,0,11.76,9.59,15.33,18.81,18.06,10.63,3.1,15.43,4.7,15.43,11.66,0,6.4-4.89,10.16-13.17,10.16-8.47,0-14-4.14-16.46-13.07h-4v14.11a42.51,42.51,0,0,0,20.13,4.8M358,83.43c3.29-7.43,5.36-9.69,9.5-9.69H368c4,0,5.64,2.16,5.64,5.83v28c0,15.8,11,24.93,28.6,24.93,14.67,0,24.55-9.22,24.55-24.17V82.49c0-5.74,2-7.71,6.3-8.37l1.88-.28V69.51H411.79v4.33l1.88,0.28c4.33,0.66,6.3,2.63,6.3,8.37v25.87c0,11.48-7.05,17.4-17,17.4s-17-5.93-17-17.4V79.58c0-3.67,1.32-5.17,4.42-5.46l2.82-.28V69.51H344.53v4.33L346.6,74c5.08,0.47,6.68,3.39,4.52,8.47l-14.77,34.33L320.64,80.14c-1.51-3.48,0-5.64,4.23-6l3-.28V69.51H298.06v4.33L299.95,74c3.76,0.38,5,1.32,7.43,6.87l22.39,50.32h7.05ZM248.21,100c0-14.86,6.4-26.53,20.32-26.53,13.73,0,20.41,11.85,20.41,26.71s-6.49,26.43-20.41,26.43c-13.73,0-20.32-11.76-20.32-26.62m-13.17.19c0,18.62,13.92,32.36,33.49,32.36s33.58-13.83,33.58-32.55-14-32.36-33.58-32.36S235,81.46,235,100.18M156,82.87c4.42-7.05,6.77-9.12,11.66-9.12h0.56c4.61,0,6.59,2.16,6.59,5.83v38.75c0,5.27-2,7.05-6.4,7.71l-1.88.28v4.33H189.9v-4.33L188,126c-4.42-.66-6.4-2.45-6.4-7.71V84.75l39.13,46.37h7.05V81.74c0-5.17,2-7,6.3-7.62l1.88-.28V69.51H212.75v4.33l1.88,0.28c4.33,0.66,6.3,2.45,6.3,7.62V112.5l-35.37-43h-42v4.33L145.5,74c5.08,0.47,6.58,2.92,3.48,7.81L138.06,99.42,126.21,80c-2.07-3.39-.75-5.46,3.2-5.83l2.82-.28V69.51H102.6v4.33L104.48,74c3.76,0.38,4.7,1.6,8,6.77l16.28,25.87v13.45c0,4-1.69,5.55-5,5.93l-2.82.28v4.33h27.75v-4.33l-2.82-.28c-3.2-.28-4.89-1.88-4.89-5.93V106.67ZM76.74,132.53c16.46,0,27.37-8.84,27.37-24,0-14-11-18.25-22.58-21.92-12.23-3.86-19.38-6.4-19.38-15.33,0-7.53,5.17-12.42,14.58-12.42s14.2,4,17.68,15h4.14V57c-5.36-2.54-12.32-4.33-21.35-4.33-15.71,0-25.77,8.56-25.77,23S62.63,94.44,74.2,98.11c12,3.76,19.09,6,19.09,14.77,0,8.47-5.46,13.45-15.9,13.45-10.91,0-16.84-5.27-20.51-17.78H52.66V126.8c5,3,13.64,5.74,24.08,5.74" transform="translate(-51.44 -52.67)"/><path class="cls-1" d="M493.84,79.65A6.61,6.61,0,1,1,495.77,75,6.35,6.35,0,0,1,493.84,79.65ZM485.16,71a5.49,5.49,0,0,0-1.65,4,5.56,5.56,0,0,0,1.64,4,5.66,5.66,0,0,0,8,0,5.74,5.74,0,0,0,0-8.06A5.65,5.65,0,0,0,485.16,71ZM489,71.33a5.53,5.53,0,0,1,2,.26,1.8,1.8,0,0,1,1.12,1.84,1.58,1.58,0,0,1-.71,1.43,2.74,2.74,0,0,1-1,.35,1.76,1.76,0,0,1,1.24.71A2,2,0,0,1,492,77v0.53q0,0.25,0,.54a1.17,1.17,0,0,0,.06.38l0,0.09H491l0-.07,0-.08,0-.23V77.61a1.77,1.77,0,0,0-.68-1.66,3.08,3.08,0,0,0-1.42-.23h-1v2.85h-1.28V71.33H489Zm1.38,1.14a3.33,3.33,0,0,0-1.55-.27h-1.09v2.62h1.15a3.48,3.48,0,0,0,1.22-.16A1.3,1.3,0,0,0,490.42,72.47Z" transform="translate(-51.44 -52.67)"/></svg>